<?xml version="1.0" encoding="UTF-8" standalone="no"?><!DOCTYPE svg PUBLIC "-//W3C//DTD SVG 1.1//EN" "http://www.w3.org/Graphics/SVG/1.1/DTD/svg11.dtd"><svg width="100%" height="100%" viewBox="0 0 128 59" version="1.1" xmlns="http://www.w3.org/2000/svg" xmlns:xlink="http://www.w3.org/1999/xlink" xml:space="preserve" xmlns:serif="http://www.serif.com/" style="fill-rule:evenodd;clip-rule:evenodd;stroke-linejoin:round;stroke-miterlimit:2;"><rect id="Artboard2" x="-0" y="0" width="127.742" height="58.506" style="fill:none;"/><g transform="matrix(0.567625,0,0,1,-38.7514,1.77636e-15)"><g transform="matrix(80.8098,0,0,80.8098,67.0572,57.5366)"><path d="M0.015,-0.7l0.46,0c0.091,0 0.168,0.013 0.23,0.038c0.063,0.025 0.109,0.062 0.14,0.109c0.031,0.047 0.046,0.102 0.046,0.167c-0,0.096 -0.036,0.169 -0.108,0.22c-0.072,0.051 -0.171,0.076 -0.298,0.076l-0.066,0l-0,-0.246l0.027,0c0.011,0 0.019,-0.003 0.026,-0.009c0.006,-0.005 0.009,-0.012 0.009,-0.02c-0,-0.005 -0.001,-0.01 -0.004,-0.015c-0.003,-0.004 -0.007,-0.008 -0.012,-0.01c-0.005,-0.003 -0.012,-0.004 -0.019,-0.004l-0.179,0l0.168,-0.168l-0,0.562l-0.42,-0l-0,-0.7Z" style="fill-rule:nonzero;"/></g><g transform="matrix(80.8098,0,0,80.8098,139.462,57.5366)"><path d="M0.455,0.012c-0.087,0 -0.165,-0.016 -0.234,-0.049c-0.068,-0.032 -0.121,-0.076 -0.159,-0.131c-0.038,-0.054 -0.057,-0.115 -0.057,-0.182c0,-0.067 0.019,-0.128 0.057,-0.183c0.037,-0.055 0.092,-0.098 0.165,-0.131c0.072,-0.032 0.158,-0.048 0.258,-0.048c0.047,-0 0.094,0.003 0.14,0.007c0.045,0.005 0.086,0.012 0.123,0.019c0.036,0.007 0.065,0.015 0.087,0.022l0,0.27l-0.002,-0c-0.036,-0.005 -0.082,-0.01 -0.139,-0.015c-0.057,-0.005 -0.106,-0.007 -0.148,-0.007c-0.033,-0 -0.058,0.002 -0.075,0.006c-0.017,0.004 -0.029,0.011 -0.036,0.02c-0.007,0.01 -0.01,0.024 -0.01,0.042c0,0.016 0.001,0.028 0.002,0.037c0.001,0.009 0.004,0.016 0.009,0.02c0.004,0.005 0.01,0.007 0.019,0.007c0.024,-0 0.041,-0.001 0.05,-0.003c0.009,-0.002 0.014,-0.007 0.016,-0.014c0.003,-0.007 0.004,-0.019 0.004,-0.038l0.137,0.159l-0.207,-0l0,-0.206l0.44,-0l0,0.045c0,0.071 -0.015,0.132 -0.045,0.185c-0.03,0.053 -0.078,0.094 -0.143,0.123c-0.065,0.03 -0.149,0.045 -0.252,0.045Z" style="fill-rule:nonzero;"/></g><g transform="matrix(80.8098,0,0,80.8098,212.191,57.5366)"><path d="M0.015,-0.7l0.43,0l0.126,0.129l0,-0.129l0.42,0l0,0.7l-0.388,-0l-0.149,-0.152l-0.019,0l0,0.152l-0.42,-0l0,-0.7Z" style="fill-rule:nonzero;"/></g><g transform="matrix(80.8098,0,0,80.8098,293.485,57.5366)"></g></g></svg>