<?xml version="1.0" encoding="UTF-8" standalone="no"?><!DOCTYPE svg PUBLIC "-//W3C//DTD SVG 1.1//EN" "http://www.w3.org/Graphics/SVG/1.1/DTD/svg11.dtd"><svg preserveAspectRatio="none" width="100%" height="100%" viewBox="0 0 4017 210" version="1.1" xmlns="http://www.w3.org/2000/svg" xmlns:xlink="http://www.w3.org/1999/xlink" xml:space="preserve" xmlns:serif="http://www.serif.com/" style="fill-rule:evenodd;clip-rule:evenodd;stroke-linejoin:round;stroke-miterlimit:2;"><rect id="Artboard1" x="0" y="0" width="4012.75" height="213.345" style="fill:none;"/><clipPath id="_clip1"><rect x="0" y="0" width="4012.75" height="213.345"/></clipPath><g clip-path="url(#_clip1)"><g transform="matrix(1,0,0,0.737342,0,-28.232)"><g transform="matrix(413.348,0,0,413.348,-6.20021,327.632)"><path d="M0.015,-0.7l0.46,0c0.091,0 0.168,0.013 0.23,0.038c0.063,0.025 0.109,0.062 0.14,0.109c0.031,0.047 0.046,0.102 0.046,0.167c-0,0.096 -0.036,0.169 -0.108,0.22c-0.072,0.051 -0.171,0.076 -0.298,0.076l-0.066,0l-0,-0.246l0.027,0c0.011,0 0.019,-0.003 0.026,-0.009c0.006,-0.005 0.009,-0.012 0.009,-0.02c-0,-0.005 -0.001,-0.01 -0.004,-0.015c-0.003,-0.004 -0.007,-0.008 -0.012,-0.01c-0.005,-0.003 -0.012,-0.004 -0.019,-0.004l-0.179,0l0.168,-0.168l-0,0.562l-0.42,-0l-0,-0.7Z" style="fill:#4a4a4a;fill-rule:nonzero;"/></g><g transform="matrix(413.348,0,0,413.348,364.158,327.632)"><path d="M0.015,-0.7l0.49,0c0.145,0 0.25,0.027 0.316,0.08c0.066,0.053 0.099,0.125 0.099,0.215c0,0.056 -0.017,0.106 -0.051,0.151c-0.035,0.045 -0.084,0.08 -0.148,0.106c-0.064,0.025 -0.139,0.038 -0.226,0.038l-0.076,0l0,-0.224l0.046,0c0.007,0 0.013,-0.001 0.018,-0.002c0.005,-0.002 0.01,-0.005 0.013,-0.008c0.003,-0.004 0.004,-0.009 0.004,-0.015c0,-0.009 -0.003,-0.015 -0.009,-0.019c-0.007,-0.004 -0.015,-0.006 -0.026,-0.006l-0.198,0l0.168,-0.168l0,0.552l-0.42,0l0,-0.7Zm0.378,0.432l0.415,0l0.107,0.268l-0.425,0l-0.097,-0.268Z" style="fill:#4a4a4a;fill-rule:nonzero;"/></g><g transform="matrix(413.348,0,0,413.348,744.846,327.632)"><path d="M0.262,-0.7l0.628,0l0.26,0.7l-0.453,-0l-0.109,-0.374l-0.024,0l-0.109,0.374l-0.453,-0l0.26,-0.7Zm0.136,0.4l0.356,0l0,0.226l-0.356,0l0,-0.226Z" style="fill:#4a4a4a;fill-rule:nonzero;"/></g><g transform="matrix(413.348,0,0,413.348,1220.19,327.632)"><path d="M0.015,-0.7l0.43,0l0.126,0.129l0,-0.129l0.42,0l0,0.7l-0.388,-0l-0.149,-0.152l-0.019,0l0,0.152l-0.42,-0l0,-0.7Z" style="fill:#4a4a4a;fill-rule:nonzero;"/></g><g transform="matrix(413.348,0,0,413.348,1635.19,327.632)"><path d="M0.262,-0.7l0.628,0l0.26,0.7l-0.453,-0l-0.109,-0.374l-0.024,0l-0.109,0.374l-0.453,-0l0.26,-0.7Zm0.136,0.4l0.356,0l0,0.226l-0.356,0l0,-0.226Z" style="fill:#4a4a4a;fill-rule:nonzero;"/></g><g transform="matrix(413.348,0,0,413.348,2020.43,327.632)"><path d="M0.272,-0l-0.27,-0.7l0.47,0l0.09,0.281l-0.028,0l0.09,-0.281l0.47,0l-0.27,0.7l-0.552,-0Z" style="fill:#4a4a4a;fill-rule:nonzero;"/></g><g transform="matrix(413.348,0,0,413.348,2473.45,327.632)"></g><g transform="matrix(413.348,0,0,413.348,2556.12,327.632)"><path d="M0.015,-0.7l0.43,0l0.126,0.129l0,-0.129l0.42,0l0,0.7l-0.388,-0l-0.149,-0.152l-0.019,0l0,0.152l-0.42,-0l0,-0.7Z" style="fill:#4a4a4a;fill-rule:nonzero;"/></g><g transform="matrix(413.348,0,0,413.348,2971.12,327.632)"><path d="M0.262,-0.7l0.628,0l0.26,0.7l-0.453,-0l-0.109,-0.374l-0.024,0l-0.109,0.374l-0.453,-0l0.26,-0.7Zm0.136,0.4l0.356,0l0,0.226l-0.356,0l0,-0.226Z" style="fill:#4a4a4a;fill-rule:nonzero;"/></g><g transform="matrix(413.348,0,0,413.348,3446.47,327.632)"><rect x="0.015" y="-0.7" width="0.42" height="0.7" style="fill:#4a4a4a;fill-rule:nonzero;"/></g><g transform="matrix(413.348,0,0,413.348,3632.47,327.632)"><path d="M0.015,-0.7l0.49,0c0.145,0 0.25,0.027 0.316,0.08c0.066,0.053 0.099,0.125 0.099,0.215c0,0.056 -0.017,0.106 -0.051,0.151c-0.035,0.045 -0.084,0.08 -0.148,0.106c-0.064,0.025 -0.139,0.038 -0.226,0.038l-0.076,0l0,-0.224l0.046,0c0.007,0 0.013,-0.001 0.018,-0.002c0.005,-0.002 0.01,-0.005 0.013,-0.008c0.003,-0.004 0.004,-0.009 0.004,-0.015c0,-0.009 -0.003,-0.015 -0.009,-0.019c-0.007,-0.004 -0.015,-0.006 -0.026,-0.006l-0.198,0l0.168,-0.168l0,0.552l-0.42,0l0,-0.7Zm0.378,0.432l0.415,0l0.107,0.268l-0.425,0l-0.097,-0.268Z" style="fill:#4a4a4a;fill-rule:nonzero;"/></g><g transform="matrix(413.348,0,0,413.348,4014.82,327.632)"></g></g></g></svg>